<?xml version="1.0" standalone="no"?>
<!DOCTYPE svg PUBLIC "-//W3C//DTD SVG 20010904//EN"
 "http://www.w3.org/TR/2001/REC-SVG-20010904/DTD/svg10.dtd">
<svg version="1.0" xmlns="http://www.w3.org/2000/svg"
 width="512.000000pt" height="512.000000pt" viewBox="0 0 512.000000 512.000000"
 preserveAspectRatio="xMidYMid meet">
<metadata>
Created by potrace 1.14, written by Peter Selinger 2001-2017
</metadata>
<g transform="translate(0.000000,512.000000) scale(0.100000,-0.100000)"
fill="#000000" stroke="none">
<path d="M2733 4733 c-11 -27 -31 -75 -44 -108 -13 -33 -28 -63 -32 -66 -5 -3
-9 -10 -9 -15 -1 -12 -7 -33 -20 -64 -6 -14 -14 -34 -19 -45 -5 -11 -20 -46
-34 -79 -14 -32 -25 -65 -25 -72 0 -8 -4 -14 -8 -14 -4 0 -12 -15 -17 -32 -9
-30 -14 -33 -50 -34 -234 -6 -550 -103 -760 -235 -16 -10 -37 -23 -46 -28 -18
-12 -17 -13 -220 151 -36 29 -83 67 -104 83 -21 17 -117 93 -214 170 -225 179
-249 197 -254 188 -3 -5 -3 -53 0 -108 6 -130 6 -807 -1 -955 -7 -162 -15
-307 -21 -360 -2 -25 -7 -79 -10 -120 -4 -41 -8 -86 -10 -100 -2 -14 -6 -50
-10 -80 -3 -30 -8 -68 -11 -83 -2 -16 -7 -50 -9 -75 -6 -56 -12 -94 -31 -187
-8 -38 -17 -86 -20 -105 -12 -81 -127 -466 -143 -480 -3 -3 -7 -11 -9 -19 -2
-8 -23 -57 -48 -109 -25 -52 -44 -95 -42 -96 2 -1 27 -16 56 -34 29 -18 58
-32 63 -32 5 0 9 -4 9 -9 0 -5 8 -11 17 -15 19 -6 40 -18 143 -81 94 -58 102
-62 138 -81 17 -10 32 -21 32 -26 0 -4 6 -8 13 -8 6 0 22 -8 34 -18 23 -17 21
-18 -92 -56 -63 -22 -112 -42 -110 -46 2 -4 37 -17 77 -31 146 -48 360 -167
448 -249 9 -8 45 -40 80 -70 35 -30 75 -65 89 -77 46 -40 50 -43 60 -43 5 0
11 -4 13 -8 6 -15 151 -99 253 -147 156 -73 157 -74 210 -91 261 -82 463 -114
687 -108 130 3 169 7 349 38 52 8 194 49 207 59 6 5 12 7 12 4 0 -4 20 2 45
13 25 11 46 19 48 19 1 -1 28 11 61 25 32 14 61 26 63 26 3 0 17 9 31 19 15
10 29 18 32 17 10 -2 165 97 245 158 161 121 388 375 483 541 80 137 197 415
217 514 2 9 8 36 13 61 6 25 13 61 16 80 3 19 8 45 10 57 26 127 27 400 1 568
-30 201 -104 427 -192 593 -34 63 -144 233 -167 258 -6 7 -22 27 -36 45 -29
38 -186 198 -245 249 -44 38 -129 102 -188 140 -36 24 -38 27 -32 66 9 64 15
96 25 131 5 20 5 35 -1 38 -5 4 -78 3 -161 -1 -271 -12 -300 -12 -314 6 -28
33 -150 189 -174 220 -14 18 -33 43 -42 54 -14 17 -88 112 -125 161 -20 25
-96 122 -123 154 -11 13 -20 28 -20 33 0 23 -18 3 -37 -39z"/>
</g>
</svg>
