<svg width="13" height="19" viewBox="0 0 13 19" fill="none" xmlns="http://www.w3.org/2000/svg">
<g id="SVG">
<path id="Vector" d="M10.2833 1.09497H3.61662C2.35245 1.09497 1.32495 2.12247 1.32495 3.38664V15.0533C1.32495 16.3175 2.35245 17.345 3.61662 17.345H10.2833C11.5475 17.345 12.575 16.3175 12.575 15.0533V3.38664C12.575 2.12247 11.5475 1.09497 10.2833 1.09497ZM11.325 15.0533C11.325 15.6275 10.8575 16.095 10.2833 16.095H3.61662C3.04245 16.095 2.57495 15.6275 2.57495 15.0533V3.38664C2.57495 2.81247 3.04245 2.34497 3.61662 2.34497H10.2833C10.8575 2.34497 11.325 2.81247 11.325 3.38664V15.0533ZM8.40828 4.21997C8.40828 4.56497 8.12828 4.84497 7.78328 4.84497H6.11662C5.77162 4.84497 5.49162 4.56497 5.49162 4.21997C5.49162 3.87497 5.77162 3.59497 6.11662 3.59497H7.78328C8.12828 3.59497 8.40828 3.87497 8.40828 4.21997Z" fill="#050B20"/>
</g>
</svg>
